<?xml version="1.0" encoding="utf-8"?>
<!-- Generator: Adobe Illustrator 22.0.0, SVG Export Plug-In . SVG Version: 6.00 Build 0)  -->
<svg version="1.1" id="Layer_1" xmlns="http://www.w3.org/2000/svg" xmlns:xlink="http://www.w3.org/1999/xlink" x="0px" y="0px"
	 viewBox="0 0 360 101" style="enable-background:new 0 0 360 101;" xml:space="preserve">
<style type="text/css">
	.st0{fill:#FFCD00;}
	.st1{fill:#42C1C0;}
</style>
<g>
	<path class="st0" d="M64.7,69c-5.5-5.5-12.4-8.5-19.8-10.5c-2.9-0.8-6-1.2-9.2-1.4c0.5-0.4,0.8-0.6,1.1-0.8
		c7.1-5.2,13.8-10.9,19.9-17.3c2.8-3,5.5-6.1,7.3-9.9c2.6-5.7-1.5-12.1-7.8-12.1c-4.2,0-8.4,0.7-12.5,1.3c-3.3,0.4-6.7,0.8-10-0.4
		c-0.6-0.2-0.8,0.1-1,0.4c-1.2,1.4-2.2,3-2.6,4.8c-0.8,3.2,0.5,5.4,3.8,6.2c2.8,0.7,5.5,0.2,8.3-0.1c2.8-0.4,5.7-0.8,8.5-1.2
		c0,0-0.8,1.3-1.1,1.8c-0.6,0.8-1.3,1.6-1.9,2.3c-0.8,1-1.7,1.9-2.6,2.8c-1.7,1.8-3.5,3.4-5.4,5c-6.3,5.6-13.1,10.6-19.8,15.6
		c-0.5,0.4-1,0.8-1.1,1.4c-1.1,3.5-0.5,6.9,1.2,10.1c0.8,1.5,1.6,1.7,3.2,1.3c5.8-1.5,11.7-2.2,17.6-1.5c4.7,0.6,9.1,1.8,12.8,4.9
		c3.5,2.9,5.1,6.5,4.1,11.1c-0.1,0.6-0.4,1.2-0.7,1.8c-0.3,0.6-0.6,1.2-1,1.8c-0.2,0.4-0.4,0.7-0.6,1.1c-0.2,0.4-0.6,0.8-0.3,1.3
		c0.3,0.6,1.5,0.3,2,0.2c1.2-0.2,2.4-0.6,3.6-1c1.1-0.4,2.2-0.8,3.3-1.3c2-1,3.8-2.4,4.7-4.5c0.1-0.1,0.1-0.3,0.2-0.4
		c0.6-1.5,0.7-3.2,0.5-4.8C68.7,74,67,71.3,64.7,69z"/>
	<path class="st1" d="M342,48.2c-0.2-1.8-1.5-3.2-3-4.1c-1.4-0.9-3.1-1.3-4.7-1.5c-3.2-0.4-6.5-0.1-9.7,0
		c-8.6,0.3-17.2,1.3-25.5,3.7c-1.1,0.3-1.1-0.2-0.9-0.9c0.5-1.6,1.4-2.9,2.8-3.9c1.6-1.1,2.9-0.8,3.9,0.8c0.4,0.6,0.2,1.8,1.2,1.7
		c0.7-0.1,1.4-0.7,2.1-1.1c0.5-0.3,0.9-0.8,1.3-1.2c2.4-2.6,2-7.1-2.6-8.1c-2.3-0.5-4.5-0.1-6.6,0.5c-5.2,1.6-9.7,4.3-12.2,9.4
		c-1.1,2.4-1.6,4.8,0.5,7.1c-1.2,0.8-2.4,1.7-3.5,2.6c-1.5,1.4-2.8,3-3.1,5.1c-0.4,3.2,1.2,5.5,4.6,6.8c3.9,1.5,7.9,1.3,11.9,0.3
		c3.3-0.9,6.2-2.3,8.4-5.1c2.5-3.2,2.8-9-2.6-10.7c-0.1,0-0.4-0.1-0.4-0.4c0.3-0.1,0.6-0.2,1-0.2c5.1-0.5,10.2-0.4,15.2,0.5
		c6.3,1.1,12.1,3.1,17,7.4c0.6,0.6,1,0.4,1.4-0.2c1.5-1.7,2.7-3.6,3.2-5.7C342,50,342,49.1,342,48.2z M299.6,57.1
		c-1.3,0.9-2.8,1.2-3.5,1.2c-3.4,0-4.8-0.9-5.3-2.7c-0.4-1.7,1.1-3.2,2.7-2.8c1.9,0.5,3.8,0.9,5.7,1.5c0.6,0.2,1.4,0.4,1.5,1.2
		C300.8,56.2,300.3,56.7,299.6,57.1z"/>
	<path class="st0" d="M184.4,71.7c-5.1-3.6-11-4.9-17.1-5.5c-1-0.1-1.2-0.2-0.7-1.2c3.5-7.6,6.6-15.4,9.6-23.3
		c1-2.6,0.2-4.4-2.2-5.8c-1.2-0.7-2.6-1-4-1.1c-0.6,0-0.9,0.1-1.1,0.7c-2.1,6.9-6.1,12.6-10.8,17.9c-0.9,1-1.9,2-3.2,2.6
		c-0.5,0.2-1,0.3-1.4,0c-0.6-0.4,0-1.9,0.2-2.6c0.5-1.2,0.9-2.4,1.4-3.5c1.4-3.3,3.1-6.5,3.9-9.9c0.6-2.5-0.2-3.9-2.5-4.9
		c-1.5-0.6-3.1-0.7-4.7-0.7c-0.7,0-0.9,0.3-0.9,0.9c-0.1,1.1-0.4,2.2-0.7,3.3c-1.1,4.1-2.9,7.9-4.3,11.8c-1.1,3-2.3,5.9-2.5,9.1
		c-0.5,5.5,3,7.8,7.4,6.3c1.8-0.6,3.4-1.4,4.9-2.6c1.1-0.9,3.4-3,3.4-3c-0.8,2.5-2.6,6.6-3.3,6.7c-3.4,0.4-10.4,2.4-14.3,4.9
		c-1.5,1-2.9,2.2-3.7,3.9c-1.4,2.6-0.6,4.9,2.2,6.1c1.2,0.5,2.4,0.7,3.7,0.8c7.3,0.2,13-3.1,17.4-8.7c1.5-1.9,2.7-2.3,5-1.7
		c7.3,2,12.5,6,14.2,13.7c0.1,0.6,0.2,0.8,0.9,0.6c2.1-0.7,4.1-1.6,5.8-3.2c2.2-2.2,2.6-5,1.1-7.7C187.1,73.9,185.9,72.7,184.4,71.7
		z M152.5,73.2c-0.2,0.3-0.4,0.6-0.5,0.8c-0.4,0.5-0.7,1.1-1.1,1.6c-0.4,0.5-1.6,2.4-2.4,2c-0.6-0.3-0.3-1.4-0.1-1.9
		c0.2-0.6,0.6-1.2,1.2-1.7c1-0.8,2.1-1.4,3.6-1.8C153.1,72.3,152.6,73.1,152.5,73.2z"/>
	<path class="st1" d="M218,28.8c-0.7-5.5-4.3-8.5-9.2-10.2c-6.3-2.2-12.7-2.3-19.2-1.1c-0.7,0.1-1.5,0.1-1.9,0.5
		c-0.7,0.6,0.3,1.2,0.5,1.8c0.4,1.8-0.2,3.3-0.7,4.9c-1.9,5.4-4.3,10.6-6.5,15.9c-2.2,5.3-4.5,10.6-5.6,16.3
		c-1.1,5.7,3.4,8.7,7.1,9.2c1,0.1,1.4-0.2,1.6-1.2c0.4-2.7,1.2-5.2,2-7.8c1.2-3.4,2.6-6.6,4.1-10.2c0.3,1.2,0.6,2.1,1.1,3
		c0.7,1.2,1.6,1.9,3,2c1.6,0.1,3.3,0,4.9-0.4c7.3-2,12.8-6.5,16.6-13C217.5,35.5,218.5,32.3,218,28.8z M205.2,34.5
		c-3,4.5-7,7.6-12.4,8.4c-1.2,0.2-1.2-0.3-0.9-1.1c1.1-3,2.5-5.8,3.8-8.7c0.5-1.2,1.1-2.4,1.7-3.5c0.5-0.9,1.4-1.6,2.1-1.9
		c1.2-0.5,2.5-0.7,3.8-0.6c2.2,0.1,3.2,1.2,3.2,3.3C206.6,32,206,33.3,205.2,34.5z"/>
	<path class="st1" d="M288.4,25.8c-0.4-2.6-2-4.3-4.6-4.6c-2.4-0.2-4.4,0.7-6.4,1.8c-0.5,0.3-0.3,0.7-0.1,1.1c1.3,2,1.7,4.3,1.7,6.6
		c-0.1,7.5-2.5,14.3-6.6,20.6c-0.7,1.1-1.5,2.1-2.7,2.8c-0.3,0.2-0.7,0.5-1.2,0.2c-0.4-0.3-0.4-0.8-0.3-1.3c0.3-1.3,0.6-2.7,1-4
		c1-3.4,2.5-6.7,3.1-10.3c0.2-1.3,0.1-2.5-0.7-3.4c-1.4-1.6-3.3-2.4-5.4-2.6c-0.6-0.1-0.9,0.1-1.1,0.7c-0.8,2.7-1.7,5.4-2.7,8
		c-1.6,3.8-3.1,7.6-5.9,10.6c-0.7,0.7-1.4,1.3-2.4,1.6c-0.8,0.3-1.4,0.1-1.3-1c0.1-1.1,0.2-2.1,0.5-3.1c0.9-3.6,2.2-7.1,2.9-10.7
		c0.4-2.2-0.4-4-2.3-5.1c-1.3-0.8-2.7-1.1-4.2-1.3c-0.8-0.1-1.1,0.1-1.2,0.9c-0.8,5-2.4,9.9-3.7,14.8c-1,3.5-2.2,7-2,10.7
		c0.2,2.9,1.4,5.3,4.2,6.5c2.7,1.2,4.9,0,6.8-1.9c1.9-1.8,3.4-4.1,5.1-6.5c0.4,1.7,0.4,3.1,0.9,4.5c1.5,3.8,5.1,5.3,8.8,3.5
		c2.2-1.1,4-2.6,5.6-4.5c6.9-8.2,11.5-17.6,13.9-28.1C288.5,30.4,288.8,28.1,288.4,25.8z"/>
	<path class="st0" d="M106.8,34.7c-2.4-0.5-4.5,0.3-6.5,1.5c-1.8,1.1-5.2,3.8-5.2,3.8c0-0.1,0.2-0.7,0.3-0.9c1-3,0-5.2-2.8-6.5
		c-0.7-0.3-1.4-0.5-2.1-0.7c-2-0.5-2.1-0.4-2.7,1.5c-0.1,0.2-0.1,0.5-0.2,0.7c-2.5,7.5-6,14.7-9.1,22c-2,4.6-4.2,9.2-5.4,14.1
		c-0.5,1.8,0.1,3.3,1.4,4.6c1.5,1.4,3.3,2.1,5.3,2.5c0.7,0.1,1.1,0,1.1-0.8c0.3-3.2,1.4-6.2,2.7-9.2c1-2.3,2.1-4.6,3.3-7.2
		c0.4,0.7,0.6,1.2,0.8,1.7c0.9,1.6,1.8,3,3.6,3.7c2.4,0.9,4.7,0.3,6.6-1c8.3-5.4,12.8-13.3,13.8-23C112,37.8,110.1,35.4,106.8,34.7z
		 M101.3,45.1c-0.4,1.9-1.3,3.5-2.3,5.2c-1.1,1.8-2.4,3.6-4.1,4.9c-1.9,1.5-3.2,1-3.7-1.5c-0.5-2.2,0.1-4.1,1.4-5.8
		c1.5-1.9,3.3-3.5,5.5-4.5c0.4-0.2,1-0.4,1.5-0.5c0,0,0.1,0,0.1,0C101,42.9,101.6,44,101.3,45.1z"/>
	<path class="st0" d="M144.1,39.9c-0.3-2.8-1.9-4.6-4.7-5.2c-2.8-0.6-5.2,0.5-7.4,2.1c-1.4,1-2.8,2.1-4.2,3.2c0,0,0.3-0.9,0.4-1.3
		c0.6-2.1,0.3-3.8-1.4-5.2c-1.5-1.2-3.3-1.7-5.1-1.8c-0.6,0-0.8,0.2-1,0.7c-0.3,1.1-0.6,2.1-0.9,3.1c-2.7,7.4-6.1,14.5-9.2,21.7
		c-1.8,4.2-3.7,8.4-4.9,12.8c-0.5,1.8,0,3.4,1.3,4.7c1.4,1.4,3.2,2.1,5.1,2.5c1,0.2,1.2,0,1.3-1c0.6-5.8,3.5-10.7,5.9-16.1
		c0.6,1.1,1,2,1.6,2.8c1.7,2.7,4,3.5,7,2.7c1.9-0.5,3.5-1.5,5-2.7c4.3-3.5,7.3-8.1,9.4-13.2C143.6,46.7,144.5,43.4,144.1,39.9z
		 M133.8,45.4c-0.7,2.5-1.9,4.9-3.6,7c-0.9,1.1-3.4,4.5-5.2,3.4c-1.1-0.7-1.2-2.7-1.2-3.8c0-4.3,3.9-7.3,7.5-8.8
		C133.2,42.4,134.4,43.4,133.8,45.4z"/>
	<path class="st0" d="M71.5,61c-0.1-4.1,1.3-7.8,2.8-11.4c1.7-4,4.1-7.7,5.9-11.7c0.8-1.8,0.2-3.2-1.5-4c-1.6-0.7-3.3-0.8-5.1-0.8
		c-0.6,0-0.8,0.3-1,0.8c-1.7,4.4-3.9,8.6-5.7,12.9c-1.5,3.6-3.1,7.2-3.5,11.1c-0.3,4.3,3,8.2,7.2,8.3c0.2,0,0.4,0,0.6,0
		c1.4,0,1.4-0.1,1-1.4C71.8,63.5,71.6,62.3,71.5,61z"/>
	<path class="st0" d="M79.6,29.7c1.9,0.3,3.2-0.7,3.9-2.8c0,0,0-0.1,0.1-0.1c1.7-3.8,0.6-5.7-3.5-6.3c-1.4-0.2-2.4,0.1-3.1,1.5
		c-0.4,0.9-1,1.8-1.3,2.7C74.6,27.9,75.9,29.7,79.6,29.7z"/>
	<path class="st1" d="M243.5,66c-0.2,0-0.4,0-0.6,0.1c-1.7,0.6-3.8,1.7-5.5,0.7c-0.5-0.3-1.5-1-1.9-2.6c-0.4-1.7-0.1-3.3,0.3-5
		c0.7-3.1,2.2-5.9,3.3-8.9c0.4-0.9,0.7-1.9,0.4-2.9c-0.7-2.5-3.6-4.2-6.2-3.5c-0.5,0.1-0.7,0.4-0.8,0.8c-1,3.6-3.2,6.6-5.8,9.2
		c-0.9,0.9-1.9,1.7-3.1,2.1c-1.5,0.5-2.3-0.3-2-1.8c0.3-1.4,0.8-2.6,1.5-3.8c2.8-4.7,9.2-9.8,16-7.8c0.3,0.1,0.6,0.1,0.8-0.2
		c1.1-1.6,2-3.3,1.5-5.3c-0.4-1.8-1.9-2.6-3.6-3c-2.2-0.5-4.4-0.3-6.6,0.2c-6.2,1.6-11.3,4.9-15.2,9.8c-3.5,4.4-5.4,9.4-4.6,15.1
		c0.8,6,6,8.6,11.4,5.8c0.8-0.4,1.5-0.9,2.2-1.4c0.5-0.4,0.9-0.8,1.3-1.2c0.1-0.1,0.2-0.2,0.3-0.3c0.1-0.1,0.5-0.6,0.5-0.6
		s-0.5,2.8-0.5,4.8c0,2.5,0.1,5,1.3,7.2c0.8,1.4,2.2,2.6,3.8,3c4.8,1.2,8.6-3.3,10.8-7C242.8,69,244.6,66.3,243.5,66z"/>
</g>
<g>
	<path class="st1" d="M321.4,32.2c0.8,0.8,1.2,1.7,1.2,2.8c0,1.1-0.4,2.1-1.2,2.9c-0.8,0.8-1.7,1.2-2.9,1.2c-1.1,0-2.1-0.4-2.9-1.2
		c-0.8-0.8-1.2-1.7-1.2-2.8c0-1.1,0.4-2.1,1.2-2.9c0.8-0.8,1.7-1.2,2.9-1.2C319.7,31,320.6,31.4,321.4,32.2z M321.1,37.5
		c0.7-0.7,1-1.5,1-2.5c0-1-0.3-1.8-1-2.5c-0.7-0.7-1.5-1-2.5-1s-1.8,0.3-2.5,1c-0.7,0.7-1,1.5-1,2.5s0.3,1.8,1,2.5
		c0.7,0.7,1.5,1,2.5,1C319.6,38.6,320.4,38.2,321.1,37.5z M320.5,34.2c0,0.7-0.3,1.2-0.9,1.4l1.2,1.6h-0.9l-1-1.5h-1v1.5H317v-4.4
		h1.6c0.7,0,1.1,0.1,1.4,0.3C320.4,33.4,320.5,33.7,320.5,34.2z M319.6,34.8c0.2-0.1,0.2-0.3,0.2-0.6s-0.1-0.5-0.2-0.6
		c-0.2-0.1-0.4-0.2-0.8-0.2h-0.9V35h0.9C319.1,35,319.4,35,319.6,34.8z"/>
</g>
</svg>
